name 900006 ik
datacolumns 165
datarows 4
range 0.9833333333333323 1.0083333333333322
cursor 1.0 1.0 0.0
keys m_key
wrap
enforce_loops no
enforce_constraints no
calc_derivatives 0.008333
event_color 1.000000 0.000000 1.000000
endheader

time	calcn_r_tx	calcn_r_ty	calcn_r_tz	calcn_r_r1	calcn_r_r2	calcn_r_r3	calcn_l_tx	calcn_l_ty	calcn_l_tz	calcn_l_r1	calcn_l_r2	calcn_l_r3	pelvis_tz	pelvis_tx	pelvis_ty	pelvis_tilt	pelvis_list	pelvis_rotation	hip_flexion_r	hip_adduction_r	hip_rotation_r	knee_angle_r	ankle_angle_r	subtalar_angle_r	mtp_angle_r	hip_flexion_l	hip_adduction_l	hip_rotation_l	knee_angle_l	ankle_angle_l	subtalar_angle_l	mtp_angle_l	lumbar_extension	lumbar_bending	lumbar_rotation	ground_force_px	ground_force_py	ground_force_pz	ground_force_vx	ground_force_vy	ground_force_vz	ground_force_px	ground_force_py	ground_force_pz	ground_force_vx	ground_force_vy	ground_force_vz	ground_torque_x	ground_torque_y	ground_torque_z	ground_torque_x	ground_torque_y	ground_torque_z	 midhip_px	 midhip_py	 midhip_pz	 hip_r_px	 hip_r_py	 hip_r_pz	 hip_l_px	 hip_l_py	 hip_l_pz	 knee_r_px	 knee_r_py	 knee_r_pz	 knee_l_px	 knee_l_py	 knee_l_pz	 ankle_r_px	 ankle_r_py	 ankle_r_pz	 ankle_l_px	 ankle_l_py	 ankle_l_pz	 midasis_px	 midasis_py	 midasis_pz	 asis_r_px	 asis_r_py	 asis_r_pz	 asis_l_px	 asis_l_py	 asis_l_pz	 psis_r_px	 psis_r_py	 psis_r_pz	 psis_l_px	 psis_l_py	 psis_l_pz	 epicondLat_r_px	 epicondLat_r_py	 epicondLat_r_pz	 epicondLat_l_px	 epicondLat_l_py	 epicondLat_l_pz	 epicondMed_r_px	 epicondMed_r_py	 epicondMed_r_pz	 epicondMed_l_px	 epicondMed_l_py	 epicondMed_l_pz	 malleolusLat_r_px	 malleolusLat_r_py	 malleolusLat_r_pz	 malleolusLat_l_px	 malleolusLat_l_py	 malleolusLat_l_pz	 malleolusMedv_r_px	 malleolusMedv_r_py	 malleolusMedv_r_pz	 malleolusMedv_l_px	 malleolusMedv_l_py	 malleolusMedv_l_pz	 sternalnotch_px	 sternalnotch_py	 sternalnotch_pz	 xyphoidprocess_px	 xyphoidprocess_py	 xyphoidprocess_pz	 neck_px	 neck_py	 neck_pz	 toe_r_px	 toe_r_py	 toe_r_pz	 toe_l_px	 toe_l_py	 toe_l_pz	 thighwand_r_px	 thighwand_r_py	 thighwand_r_pz	 thighwand_l_px	 thighwand_l_py	 thighwand_l_pz	 upperleg1_r_px	 upperleg1_r_py	 upperleg1_r_pz	 upperleg1_l_px	 upperleg1_l_py	 upperleg1_l_pz	 upperleg2_r_px	 upperleg2_r_py	 upperleg2_r_pz	 upperleg2_l_px	 upperleg2_l_py	 upperleg2_l_pz	 shankwand_r_px	 shankwand_r_py	 shankwand_r_pz	 shankwand_l_px	 shankwand_l_py	 shankwand_l_pz	 lowerleg1_r_px	 lowerleg1_r_py	 lowerleg1_r_pz	 lowerleg1_l_px	 lowerleg1_l_py	 lowerleg1_l_pz	 subclavicle_r_px	 subclavicle_r_py	 subclavicle_r_pz	 subclavicle_l_px	 subclavicle_l_py	 subclavicle_l_pz	
      0.9833333333333323	      1.9421412900180288	      0.0374787252393885	     -0.2068846688819279	      3.2528202161438733	      2.9578051372603551	     -2.5272332290691737	      1.8951588347225663	      0.1129129107692987	     -0.3183456850188614	     -1.0864671547976390	      4.9983038254843635	    -23.5035057572742970	     -0.2545807229485468	      2.0896205961790826	      0.8381760812670067	      2.5464526576933704	      1.9116259662531527	      3.2873421445930022	     -0.0368706750839534	      2.2654788161033355	      0.5063335903032338	    -11.0462375685678630	      6.2241558103927073	      0.0000000000000000	      0.0000000000000000	     14.6652485403320480	      1.9567108014914913	     -3.6064712509153591	    -46.8522914104667830	      6.0853068295625006	      0.0000000000000000	      0.0000000000000000	     -4.9945284851592060	     -0.4188424710005532	     -1.4493794227653514	      2.0548689204137989	      0.0000000000000000	     -0.2236057622553786	    -14.7735372080438910	    396.6090004480578300	     -9.4505962812422304	      1.6477150943574308	      0.0000000000000000	     -0.2741163605679504	      0.0000000000000310	     -0.0000000000001001	      0.0000000000000001	      0.0000000000000000	      0.5504415213912022	      0.0000000000000000	      0.0000000000000000	      0.0000000000000016	      0.0000000000000000	      2.0567068771121613	      0.7761830181648596	     -0.2579141652958361	      2.0519815682212399	      0.7705554523762774	     -0.2009583426527495	      2.0614325966896874	      0.7818107001291240	     -0.3148699795522245	      2.0004316658852930	      0.4277148188370742	     -0.1976596004116280	      2.1097690666241631	      0.4354137025626957	     -0.3376440667692567	      1.9896429548919421	      0.0653602274470329	     -0.2153413385974680	      1.9531861873662035	      0.1226882123959003	     -0.3126870836363669	      2.0919396314519867	      0.8479076721437817	     -0.2485011387987460	      2.0981256298448523	      0.8430750726956159	     -0.1376672434282738	      2.0857534585640085	      0.8527401883127043	     -0.3593345574963686	      1.9180713976194557	      0.8760598398904014	     -0.2066251280909980	      1.9128522014989233	      0.8752306561923418	     -0.2620469752270409	      2.0446864165379548	      0.4180989066333920	     -0.1387157276886869	      2.1171372019105990	      0.4278758027122332	     -0.3952111986103093	      2.0068881253237993	      0.4265703174629451	     -0.2544341781617266	      2.1431693814495523	      0.4283027399523794	     -0.2741390882030004	      1.9910064754733441	      0.0630265498635146	     -0.1779389185114183	      1.9384583760981775	      0.1280053203736161	     -0.3456594790331248	      1.9842896366472336	      0.0630518907019472	     -0.2484636768755392	      1.9586336196359604	      0.1235958687412500	     -0.2795476972907236	      2.0804276351793409	      1.2003013804142946	     -0.2528344295454590	      2.0877850961854603	      1.0985701963842289	     -0.2590387017457682	      1.9731817271041787	      1.2716955694516292	     -0.2417241212773232	      2.0730122116170500	      0.0463214709785227	     -0.2164912349005131	      2.0218474564102809	      0.0705975432359240	     -0.3353743703842050	      2.1609773506956294	      0.5566293594700403	     -0.1757954514472501	      2.1927955030089965	      0.6042133357201649	     -0.4084709418337757	      2.1125181675171145	      0.5952602774889715	     -0.1337001826064186	      2.1658297827521027	      0.6396762913242396	     -0.3402533007596121	      2.0965215061600380	      0.5383838887334573	     -0.1386737609710983	      2.1741023404508795	      0.5816579086686992	     -0.3341576800259171	      2.1240553374996649	      0.1726607538549447	     -0.2063859262023889	      1.9654259117522572	      0.2256447911435255	     -0.4384308950527914	      2.0444151490231519	      0.1631886961627614	     -0.2087721391233395	      1.9812153108088906	      0.2125773998171794	     -0.3620803159444772	      2.0850597095189185	      1.1986241825117872	     -0.1963537709638116	      2.0816629080099376	      1.2022557742015756	     -0.3033296946709702	
      0.9916666666666656	      1.9415942395175934	      0.0374021294486056	     -0.2078453189125535	      3.1739103742980217	      2.3955409898886786	     -2.4388564294164818	      1.9168770944355051	      0.1051236754819227	     -0.3211492913249392	     -1.0878616042465974	      4.1679533116925915	    -20.5129140868746660	     -0.2546961792281176	      2.0951833742944292	      0.8379711684131405	      2.5190828194267580	      2.0307114254280969	      2.8817123882788769	     -0.4973765322323082	      2.1095436153194447	      0.4525097629029379	    -11.0069446002796310	      6.7526846728727676	      0.0000000000000000	      0.0000000000000000	     15.2607538018968820	      2.2108193504436495	     -3.4396288653306786	    -45.2324333047561280	      6.9278527852277323	      0.0000000000000000	      0.0000000000000000	     -5.1257712268083857	     -0.7869410902543405	     -1.1977238112359503	      2.0586914085111885	      0.0000000000000000	     -0.2240120398452948	    -14.3027211351698680	    397.9541873722115500	     -9.3321828120124586	      1.6485935096330082	      0.0000000000000000	     -0.2742350799509280	      0.0000000000000010	     -0.0000000000000034	      0.0000000000000000	      0.0000000000000000	      0.5855873855750072	      0.0000000000000000	      0.0000000000000000	      0.0000000000000001	      0.0000000000000000	      2.0625275114038972	      0.7760648392349632	     -0.2580327524332400	      2.0576810842049924	      0.7703357970229964	     -0.2010973649831746	      2.0673742374067179	      0.7817939736628463	     -0.3149679966680202	      2.0020622791841500	      0.4287481872001666	     -0.1978211516603836	      2.1186263525906721	      0.4360931217827847	     -0.3373266028850256	      1.9896097670507735	      0.0654303538854989	     -0.2154147902874696	      1.9738914696771084	      0.1171693020210825	     -0.3142473839997350	      2.0978422003832966	      0.8477484164447373	     -0.2484227147802931	      2.1038118594817732	      0.8426936951441314	     -0.1375360182775667	      2.0918723490483142	      0.8528030556030130	     -0.3593089707044844	      1.9237647682315573	      0.8760493096449687	     -0.2071246210862549	      1.9191058229199192	      0.8751941637535270	     -0.2625756510148952	      2.0471767222445361	      0.4178802508558481	     -0.1388008948953881	      2.1268189814163039	      0.4286732938861231	     -0.3950259251005360	      2.0090766199628107	      0.4276271277887249	     -0.2554482646829113	      2.1511623402855919	      0.4291861534281938	     -0.2737911504014511	      1.9909796206280810	      0.0630857357532887	     -0.1780132384727945	      1.9589260516982243	      0.1221554835061387	     -0.3471648286391361	      1.9843975825931688	      0.0631621281618234	     -0.2485692241412350	      1.9794889351427287	      0.1180430519670285	     -0.2811541383651919	      2.0866636305012340	      1.2002192224425505	     -0.2533360609524421	      2.0937724617774807	      1.0984514293201286	     -0.2592195015377170	      1.9798905663306636	      1.2717119692791941	     -0.2420513747803596	      2.0730186542641271	      0.0463500341796986	     -0.2165256892694868	      2.0447263346588387	      0.0685275178118314	     -0.3378228042190530	      2.1650696397849045	      0.5556211306825079	     -0.1755947887889295	      2.2004404754094700	      0.6054543697817076	     -0.4078576402806590	      2.1167590666191689	      0.5946490163138994	     -0.1337319459901885	      2.1727041382645669	      0.6407588056112149	     -0.3396972692863202	      2.0997682983631845	      0.5376474735427704	     -0.1389131881575351	      2.1813678461068218	      0.5827740426351196	     -0.3335595665894185	      2.1249964863376469	      0.1716992021452355	     -0.2065399233590763	      1.9821804515288393	      0.2213822715804665	     -0.4393587756486881	      2.0455071817853012	      0.1628074581215621	     -0.2089340129869857	      1.9986433481322177	      0.2083336904380284	     -0.3631637570218676	      2.0914046148878591	      1.1987163588275351	     -0.1968277992320610	      2.0878026324294092	      1.2020054039712411	     -0.3038714232801328	
      0.9999999999999989	      1.9414065407846623	      0.0372113776729955	     -0.2080164084840397	      3.0959566516840198	      2.0404978132591469	     -2.2941882213865039	      1.9388698662731365	      0.0976627937584562	     -0.3236572861592755	     -0.9734642703829997	      3.7792810171670879	    -17.7847594574349940	     -0.2544201832418402	      2.1010622124491145	      0.8375921618027540	      2.4445580062113361	      2.1459772612743446	      2.6662404775944584	     -0.9403960385372410	      1.9732179835226786	      0.4257970129318162	    -10.9343152681880650	      7.3416139339501862	      0.0000000000000000	      0.0000000000000000	     15.8339078329811830	      2.2949356087276862	     -3.4093230039947415	    -43.4882726917065200	      7.4391001644294805	      0.0000000000000000	      0.0000000000000000	     -5.2560079330100891	     -1.1380256757581566	     -0.9211390696454510	      2.0623273899999996	      0.0000000000000000	     -0.2243861199999926	    -13.8478045499891160	    400.0846088900157200	     -9.1873381900088518	      1.6495417499999876	      0.0000000000000000	     -0.2743577000000024	     -0.0000000000000000	      0.0000000000000000	     -0.0000000000000000	      0.0000000000000000	      0.6222578100016233	      0.0000000000000000	      0.0000000000000000	     -0.0000000000000000	      0.0000000000000000	      2.0683556230145879	      0.7758348314650715	     -0.2581216931363003	      2.0633561764021096	      0.7700110575691830	     -0.2012092947343502	      2.0733551935331587	      0.7816586105373280	     -0.3150337996559374	      2.0042373195229253	      0.4294789402106947	     -0.1980556337098198	      2.1271987753361388	      0.4365787664245391	     -0.3369694124467207	      1.9896344269120529	      0.0655077272240711	     -0.2154702582433252	      1.9949803794960892	      0.1117669523825201	     -0.3158535706860370	      2.1037497913510581	      0.8474873398259906	     -0.2483119987384517	      2.1094483735910017	      0.8422239324236844	     -0.1373521397054555	      2.0980510800888097	      0.8527507087516951	     -0.3592714853539334	      1.9294783059463623	      0.8759540421900811	     -0.2076928461337262	      1.9252891954421285	      0.8751301313949093	     -0.2631370037199569	      2.0497375708938201	      0.4176480750258947	     -0.1389376879313677	      2.1361736468369235	      0.4293311237755116	     -0.3947916426345272	      2.0118245577792084	      0.4281854252490973	     -0.2561898565531678	      2.1588900002560156	      0.4298279442632081	     -0.2734485647291147	      1.9909916072058484	      0.0631622487256639	     -0.1780682980634424	      1.9797454531299465	      0.1164111946035848	     -0.3486971406802118	      1.9845435752650737	      0.0632478151247656	     -0.2486503482201978	      2.0006860095023580	      0.1125589792078730	     -0.2827890925527263	      2.0929094354715931	      1.2000148737158867	     -0.2538607542521625	      2.0997500344167852	      1.0982114607910047	     -0.2594483887139271	      1.9865705721967899	      1.2716584839558065	     -0.2424522054721753	      2.0730679425427616	      0.0464315670204680	     -0.2165692717675537	      2.0677499906067283	      0.0665774511478188	     -0.3403289552223658	      2.1692032558615169	      0.5546202700475363	     -0.1753609436298650	      2.2078504474522989	      0.6064730136850496	     -0.4072261169931190	      2.1209970194861798	      0.5940455113827347	     -0.1338649049780036	      2.1793843353858868	      0.6415718384450242	     -0.3391188539844767	      2.1031943090725225	      0.5369774223238435	     -0.1391271352002302	      2.1884102015378359	      0.5836582026114335	     -0.3329525566716921	      2.1259852227418867	      0.1706762301800154	     -0.2066404649275163	      1.9989551814847806	      0.2170947886978012	     -0.4402535049639303	      2.0465945528689748	      0.1624018317780938	     -0.2090783527899678	      2.0161911819526837	      0.2041339487742027	     -0.3641483436001823	      2.0977434113671651	      1.1986699410328885	     -0.1973209018678824	      2.0939664876813056	      1.2016463486281528	     -0.3044383688742753	
      1.0083333333333322	      1.9414216398729265	      0.0373032469653811	     -0.2088255523152401	      3.0810490977527980	      1.7543189149538292	     -2.3156517806752168	      1.9608745237638512	      0.0908182016720089	     -0.3257208159983807	     -0.8868071575501050	      3.5927839845980385	    -15.4213635734164620	     -0.2543319885396484	      2.1069085029296963	      0.8372208931010536	      2.3728725337270902	      2.2147299543060548	      2.4904336232374868	     -1.3277053218508710	      1.9326236370744228	      0.3972338494480771	    -10.9247074329876540	      7.7725769011038857	      0.0000000000000000	      0.0000000000000000	     16.3494089923109840	      2.3242919019357715	     -3.4425383003460910	    -41.6532924252379150	      7.5380543863111500	      0.0000000000000000	      0.0000000000000000	     -5.3499919724078655	     -1.3453931471892258	     -0.7164912079308660	      2.0658320313839114	      0.0000000000000000	     -0.2247324801342715	    -13.4177105387838210	    402.8297204558539300	     -9.0134740019923463	      1.6505500504190493	      0.0000000000000000	     -0.2744885300554297	     -0.0000000000000002	      0.0000000000000006	     -0.0000000000000000	      0.0000000000000000	      0.6617050359783995	      0.0000000000000000	      0.0000000000000000	     -0.0000000000000000	      0.0000000000000000	      2.0742046095714612	      0.7755135562185281	     -0.2581915259594155	      2.0690262858565163	      0.7696006943955374	     -0.2013044156256844	      2.0793828550313989	      0.7814262753116452	     -0.3150782033996336	      2.0068724977715493	      0.4299504136196807	     -0.1983377462576784	      2.1355619761045901	      0.4368031446054183	     -0.3365952183743917	      1.9897131787492210	      0.0655959906428310	     -0.2155110819971134	      2.0164239161379522	      0.1065656235104480	     -0.3175178648090561	      2.1096653993118428	      0.8471407500123067	     -0.2481786803716072	      2.1150454853699499	      0.8416834385246591	     -0.1371424846420037	      2.1042852927074529	      0.8525980653840676	     -0.3592145960346884	      1.9352102444645134	      0.8757750893506210	     -0.2083035075556810	      1.9313636127500478	      0.8750258864423852	     -0.2637109709179658	      2.0523675223710400	      0.4173952674933352	     -0.1391082419469865	      2.1451876612881029	      0.4298474240381783	     -0.3945234556248856	      2.0150410463702189	      0.4283243687600196	     -0.2566771748476066	      2.1664161544250651	      0.4302237206284083	     -0.2730911595967338	      1.9910384648119039	      0.0632579281607954	     -0.1781075689415888	      2.0008856768614196	      0.1108550941523858	     -0.3502666923577762	      1.9847278072487744	      0.0632582445914227	     -0.2487045459403528	      2.0221878896376690	      0.1072379217469079	     -0.2844596823230843	      2.0991752003387272	      1.1996832155173169	     -0.2544025386918832	      2.1057384683981217	      1.0978479626477322	     -0.2597560249292580	      1.9931984174478641	      1.2715320795265448	     -0.2429333416008968	      2.0731653092764222	      0.0465608969192342	     -0.2166259682623864	      2.0908886176295445	      0.0647881535086502	     -0.3428505741253565	      2.1733636033538852	      0.5536134298376978	     -0.1750768655014360	      2.2150268479963788	      0.6072593613188820	     -0.4065855903352880	      2.1252279822077793	      0.5934535978822224	     -0.1340520251897399	      2.1858614115571471	      0.6420959630109222	     -0.3385696216717056	      2.1067686834196446	      0.5363570254352710	     -0.1392923227664270	      2.1952414626696659	      0.5842971941839161	     -0.3323665117783478	      2.1270238955378891	      0.1696000496756036	     -0.2066824432497078	      2.0157320970229957	      0.2128438087974013	     -0.4411084736218840	      2.0476057794474873	      0.1619473147550091	     -0.2092234764939126	      2.0338105505473738	      0.2000369509699974	     -0.3650478919143715	      2.1040776373468852	      1.1984596228314885	     -0.1978366878295370	      2.1001722617090941	      1.2011920277508885	     -0.3050140304540141	
